<mxfile host="app.diagrams.net" agent="Mozilla/5.0 (X11; Linux x86_64) AppleWebKit/537.36 (KHTML, like Gecko) Chrome/130.0.0.0 Safari/537.36" version="26.1.1">
  <diagram name="Страница — 1" id="RW-pO1266FzQhhYjobIq">
    <mxGraphModel dx="2195" dy="754" grid="1" gridSize="10" guides="1" tooltips="1" connect="1" arrows="1" fold="1" page="1" pageScale="1" pageWidth="827" pageHeight="1169" math="0" shadow="0">
      <root>
        <mxCell id="0" />
        <mxCell id="1" parent="0" />
        <mxCell id="mf_PLKOSiDefCwh0_vWu-9" style="edgeStyle=orthogonalEdgeStyle;rounded=0;orthogonalLoop=1;jettySize=auto;html=1;exitX=0.5;exitY=1;exitDx=0;exitDy=0;" parent="1" source="mf_PLKOSiDefCwh0_vWu-2" target="mf_PLKOSiDefCwh0_vWu-3" edge="1">
          <mxGeometry relative="1" as="geometry">
            <Array as="points">
              <mxPoint x="450" y="110" />
              <mxPoint x="245" y="110" />
            </Array>
          </mxGeometry>
        </mxCell>
        <mxCell id="mf_PLKOSiDefCwh0_vWu-10" style="edgeStyle=orthogonalEdgeStyle;rounded=0;orthogonalLoop=1;jettySize=auto;html=1;exitX=0.5;exitY=1;exitDx=0;exitDy=0;entryX=0.5;entryY=0;entryDx=0;entryDy=0;" parent="1" source="mf_PLKOSiDefCwh0_vWu-2" target="mf_PLKOSiDefCwh0_vWu-4" edge="1">
          <mxGeometry relative="1" as="geometry">
            <Array as="points">
              <mxPoint x="450" y="110" />
              <mxPoint x="675" y="110" />
            </Array>
          </mxGeometry>
        </mxCell>
        <mxCell id="mf_PLKOSiDefCwh0_vWu-2" value="idx: 0 | 4" style="rounded=0;whiteSpace=wrap;html=1;align=center;" parent="1" vertex="1">
          <mxGeometry x="300" y="70" width="299" height="30" as="geometry" />
        </mxCell>
        <mxCell id="mf_PLKOSiDefCwh0_vWu-13" style="edgeStyle=orthogonalEdgeStyle;rounded=0;orthogonalLoop=1;jettySize=auto;html=1;exitX=0.5;exitY=1;exitDx=0;exitDy=0;entryX=0.541;entryY=0.067;entryDx=0;entryDy=0;entryPerimeter=0;" parent="1" source="mf_PLKOSiDefCwh0_vWu-3" target="mf_PLKOSiDefCwh0_vWu-6" edge="1">
          <mxGeometry relative="1" as="geometry">
            <mxPoint x="250" y="170" as="sourcePoint" />
            <mxPoint x="360" y="200" as="targetPoint" />
            <Array as="points">
              <mxPoint x="245" y="180" />
              <mxPoint x="361" y="180" />
            </Array>
          </mxGeometry>
        </mxCell>
        <mxCell id="mf_PLKOSiDefCwh0_vWu-3" value="idx: 0 | 2" style="rounded=0;whiteSpace=wrap;html=1;align=left;" parent="1" vertex="1">
          <mxGeometry x="160" y="130" width="170" height="30" as="geometry" />
        </mxCell>
        <mxCell id="mf_PLKOSiDefCwh0_vWu-12" style="edgeStyle=orthogonalEdgeStyle;rounded=0;orthogonalLoop=1;jettySize=auto;html=1;exitX=0.5;exitY=1;exitDx=0;exitDy=0;entryX=0.5;entryY=0;entryDx=0;entryDy=0;" parent="1" source="mf_PLKOSiDefCwh0_vWu-4" target="mf_PLKOSiDefCwh0_vWu-8" edge="1">
          <mxGeometry relative="1" as="geometry">
            <Array as="points">
              <mxPoint x="675" y="170" />
              <mxPoint x="815" y="170" />
            </Array>
          </mxGeometry>
        </mxCell>
        <mxCell id="mf_PLKOSiDefCwh0_vWu-4" value="idx: 4 | 8" style="rounded=0;whiteSpace=wrap;html=1;align=left;" parent="1" vertex="1">
          <mxGeometry x="590" y="130" width="170" height="30" as="geometry" />
        </mxCell>
        <mxCell id="mf_PLKOSiDefCwh0_vWu-5" value="leaf: 0 name0 | 1 name1" style="rounded=0;whiteSpace=wrap;html=1;align=left;" parent="1" vertex="1">
          <mxGeometry x="60" y="190" width="170" height="30" as="geometry" />
        </mxCell>
        <mxCell id="mf_PLKOSiDefCwh0_vWu-6" value="leaf: 2 name2 | 3 name3" style="rounded=0;whiteSpace=wrap;html=1;align=left;" parent="1" vertex="1">
          <mxGeometry x="270" y="190" width="170" height="30" as="geometry" />
        </mxCell>
        <mxCell id="mf_PLKOSiDefCwh0_vWu-7" value="leaf: 4 name4 | 7 name7" style="rounded=0;whiteSpace=wrap;html=1;align=left;" parent="1" vertex="1">
          <mxGeometry x="500" y="190" width="170" height="30" as="geometry" />
        </mxCell>
        <mxCell id="mf_PLKOSiDefCwh0_vWu-8" value="leaf: 8 name8" style="rounded=0;whiteSpace=wrap;html=1;align=left;" parent="1" vertex="1">
          <mxGeometry x="730" y="190" width="170" height="30" as="geometry" />
        </mxCell>
        <mxCell id="mf_PLKOSiDefCwh0_vWu-11" style="edgeStyle=orthogonalEdgeStyle;rounded=0;orthogonalLoop=1;jettySize=auto;html=1;exitX=0.25;exitY=1;exitDx=0;exitDy=0;entryX=0.435;entryY=0.033;entryDx=0;entryDy=0;entryPerimeter=0;" parent="1" source="mf_PLKOSiDefCwh0_vWu-4" target="mf_PLKOSiDefCwh0_vWu-7" edge="1">
          <mxGeometry relative="1" as="geometry" />
        </mxCell>
        <mxCell id="mf_PLKOSiDefCwh0_vWu-14" style="edgeStyle=orthogonalEdgeStyle;rounded=0;orthogonalLoop=1;jettySize=auto;html=1;exitX=0.5;exitY=1;exitDx=0;exitDy=0;entryX=0.459;entryY=0.167;entryDx=0;entryDy=0;entryPerimeter=0;" parent="1" source="mf_PLKOSiDefCwh0_vWu-3" target="mf_PLKOSiDefCwh0_vWu-5" edge="1">
          <mxGeometry relative="1" as="geometry">
            <Array as="points">
              <mxPoint x="245" y="170" />
              <mxPoint x="138" y="170" />
            </Array>
          </mxGeometry>
        </mxCell>
        <mxCell id="mf_PLKOSiDefCwh0_vWu-15" value="HTree" style="text;html=1;align=center;verticalAlign=middle;whiteSpace=wrap;rounded=0;" parent="1" vertex="1">
          <mxGeometry x="419.5" y="20" width="60" height="30" as="geometry" />
        </mxCell>
        <mxCell id="mf_PLKOSiDefCwh0_vWu-16" style="edgeStyle=orthogonalEdgeStyle;rounded=0;orthogonalLoop=1;jettySize=auto;html=1;exitX=0.5;exitY=1;exitDx=0;exitDy=0;" parent="1" source="mf_PLKOSiDefCwh0_vWu-18" target="mf_PLKOSiDefCwh0_vWu-20" edge="1">
          <mxGeometry relative="1" as="geometry">
            <Array as="points">
              <mxPoint x="460" y="400" />
              <mxPoint x="255" y="400" />
            </Array>
          </mxGeometry>
        </mxCell>
        <mxCell id="mf_PLKOSiDefCwh0_vWu-17" style="edgeStyle=orthogonalEdgeStyle;rounded=0;orthogonalLoop=1;jettySize=auto;html=1;exitX=0.5;exitY=1;exitDx=0;exitDy=0;entryX=0.5;entryY=0;entryDx=0;entryDy=0;" parent="1" source="mf_PLKOSiDefCwh0_vWu-18" target="mf_PLKOSiDefCwh0_vWu-22" edge="1">
          <mxGeometry relative="1" as="geometry">
            <Array as="points">
              <mxPoint x="460" y="400" />
              <mxPoint x="685" y="400" />
            </Array>
          </mxGeometry>
        </mxCell>
        <mxCell id="mf_PLKOSiDefCwh0_vWu-18" value="idx: 0 | 4" style="rounded=0;whiteSpace=wrap;html=1;align=center;" parent="1" vertex="1">
          <mxGeometry x="310" y="360" width="299" height="30" as="geometry" />
        </mxCell>
        <mxCell id="mf_PLKOSiDefCwh0_vWu-19" style="edgeStyle=orthogonalEdgeStyle;rounded=0;orthogonalLoop=1;jettySize=auto;html=1;exitX=0.5;exitY=1;exitDx=0;exitDy=0;entryX=0.541;entryY=0.067;entryDx=0;entryDy=0;entryPerimeter=0;" parent="1" source="mf_PLKOSiDefCwh0_vWu-20" target="mf_PLKOSiDefCwh0_vWu-24" edge="1">
          <mxGeometry relative="1" as="geometry">
            <mxPoint x="260" y="460" as="sourcePoint" />
            <mxPoint x="370" y="490" as="targetPoint" />
            <Array as="points">
              <mxPoint x="255" y="470" />
              <mxPoint x="371" y="470" />
            </Array>
          </mxGeometry>
        </mxCell>
        <mxCell id="mf_PLKOSiDefCwh0_vWu-20" value="idx: 0 | 2" style="rounded=0;whiteSpace=wrap;html=1;align=left;" parent="1" vertex="1">
          <mxGeometry x="170" y="420" width="170" height="30" as="geometry" />
        </mxCell>
        <mxCell id="mf_PLKOSiDefCwh0_vWu-21" style="edgeStyle=orthogonalEdgeStyle;rounded=0;orthogonalLoop=1;jettySize=auto;html=1;exitX=0.5;exitY=1;exitDx=0;exitDy=0;entryX=0.5;entryY=0;entryDx=0;entryDy=0;" parent="1" source="mf_PLKOSiDefCwh0_vWu-22" target="mf_PLKOSiDefCwh0_vWu-26" edge="1">
          <mxGeometry relative="1" as="geometry">
            <Array as="points">
              <mxPoint x="685" y="460" />
              <mxPoint x="925" y="460" />
            </Array>
          </mxGeometry>
        </mxCell>
        <mxCell id="mf_PLKOSiDefCwh0_vWu-22" value="idx: 4 | 8" style="rounded=0;whiteSpace=wrap;html=1;align=left;" parent="1" vertex="1">
          <mxGeometry x="600" y="420" width="170" height="30" as="geometry" />
        </mxCell>
        <mxCell id="mf_PLKOSiDefCwh0_vWu-23" value="leaf: 0 name0 | 1 name1" style="rounded=0;whiteSpace=wrap;html=1;align=left;" parent="1" vertex="1">
          <mxGeometry x="70" y="480" width="170" height="30" as="geometry" />
        </mxCell>
        <mxCell id="mf_PLKOSiDefCwh0_vWu-24" value="leaf: 2 name2 | 3 name3" style="rounded=0;whiteSpace=wrap;html=1;align=left;" parent="1" vertex="1">
          <mxGeometry x="280" y="480" width="170" height="30" as="geometry" />
        </mxCell>
        <mxCell id="mf_PLKOSiDefCwh0_vWu-25" value="leaf: 4 name4" style="rounded=0;whiteSpace=wrap;html=1;align=left;" parent="1" vertex="1">
          <mxGeometry x="510" y="480" width="170" height="30" as="geometry" />
        </mxCell>
        <mxCell id="mf_PLKOSiDefCwh0_vWu-26" value="leaf: 8 name8" style="rounded=0;whiteSpace=wrap;html=1;align=left;" parent="1" vertex="1">
          <mxGeometry x="840" y="490" width="170" height="30" as="geometry" />
        </mxCell>
        <mxCell id="mf_PLKOSiDefCwh0_vWu-27" style="edgeStyle=orthogonalEdgeStyle;rounded=0;orthogonalLoop=1;jettySize=auto;html=1;exitX=0.25;exitY=1;exitDx=0;exitDy=0;entryX=0.435;entryY=0.033;entryDx=0;entryDy=0;entryPerimeter=0;" parent="1" source="mf_PLKOSiDefCwh0_vWu-22" target="mf_PLKOSiDefCwh0_vWu-25" edge="1">
          <mxGeometry relative="1" as="geometry" />
        </mxCell>
        <mxCell id="mf_PLKOSiDefCwh0_vWu-28" style="edgeStyle=orthogonalEdgeStyle;rounded=0;orthogonalLoop=1;jettySize=auto;html=1;exitX=0.5;exitY=1;exitDx=0;exitDy=0;entryX=0.459;entryY=0.167;entryDx=0;entryDy=0;entryPerimeter=0;" parent="1" source="mf_PLKOSiDefCwh0_vWu-20" target="mf_PLKOSiDefCwh0_vWu-23" edge="1">
          <mxGeometry relative="1" as="geometry">
            <Array as="points">
              <mxPoint x="255" y="460" />
              <mxPoint x="148" y="460" />
            </Array>
          </mxGeometry>
        </mxCell>
        <mxCell id="mf_PLKOSiDefCwh0_vWu-29" value="HTree - generation number" style="text;html=1;align=center;verticalAlign=middle;whiteSpace=wrap;rounded=0;" parent="1" vertex="1">
          <mxGeometry x="414" y="310" width="120.5" height="30" as="geometry" />
        </mxCell>
        <mxCell id="mf_PLKOSiDefCwh0_vWu-30" value="{ 3; 4 }" style="text;html=1;align=center;verticalAlign=middle;whiteSpace=wrap;rounded=0;fillColor=#9999FF;" parent="1" vertex="1">
          <mxGeometry x="549" y="360" width="60" height="30" as="geometry" />
        </mxCell>
        <mxCell id="mf_PLKOSiDefCwh0_vWu-31" value="{ 3; 4 }" style="text;html=1;align=center;verticalAlign=middle;whiteSpace=wrap;rounded=0;fillColor=#9999FF;" parent="1" vertex="1">
          <mxGeometry x="710" y="420" width="60" height="30" as="geometry" />
        </mxCell>
        <mxCell id="mf_PLKOSiDefCwh0_vWu-32" value="{ 3; 3}" style="text;html=1;align=center;verticalAlign=middle;whiteSpace=wrap;rounded=0;fillColor=#9999FF;" parent="1" vertex="1">
          <mxGeometry x="280" y="420" width="60" height="30" as="geometry" />
        </mxCell>
        <mxCell id="mf_PLKOSiDefCwh0_vWu-33" value="{ 3; 0 }" style="text;html=1;align=center;verticalAlign=middle;whiteSpace=wrap;rounded=0;fillColor=#9999FF;" parent="1" vertex="1">
          <mxGeometry x="210" y="480" width="60" height="30" as="geometry" />
        </mxCell>
        <mxCell id="mf_PLKOSiDefCwh0_vWu-35" value="{ 3; 0 }" style="text;html=1;align=center;verticalAlign=middle;whiteSpace=wrap;rounded=0;fillColor=#9999FF;" parent="1" vertex="1">
          <mxGeometry x="429.5" y="480" width="60" height="30" as="geometry" />
        </mxCell>
        <mxCell id="mf_PLKOSiDefCwh0_vWu-37" value="{ 3; 0 }" style="text;html=1;align=center;verticalAlign=middle;whiteSpace=wrap;rounded=0;fillColor=#9999FF;" parent="1" vertex="1">
          <mxGeometry x="950" y="490" width="60" height="30" as="geometry" />
        </mxCell>
        <mxCell id="mf_PLKOSiDefCwh0_vWu-38" value="&lt;h1 style=&quot;margin-top: 0px;&quot;&gt;Readdir&lt;/h1&gt;&lt;div&gt;gen idx != gen lef -&amp;gt; retry&lt;/div&gt;&lt;div&gt;&lt;br&gt;&lt;/div&gt;&lt;p&gt;&lt;br&gt;&lt;/p&gt;" style="text;html=1;whiteSpace=wrap;overflow=hidden;rounded=0;" parent="1" vertex="1">
          <mxGeometry x="50" y="590" width="180" height="120" as="geometry" />
        </mxCell>
        <mxCell id="mf_PLKOSiDefCwh0_vWu-40" value="leaf: 6 name6 | 7 name7" style="rounded=0;whiteSpace=wrap;html=1;align=left;" parent="1" vertex="1">
          <mxGeometry x="640" y="530" width="170" height="30" as="geometry" />
        </mxCell>
        <mxCell id="mf_PLKOSiDefCwh0_vWu-42" style="edgeStyle=orthogonalEdgeStyle;rounded=0;orthogonalLoop=1;jettySize=auto;html=1;exitX=0.5;exitY=1;exitDx=0;exitDy=0;entryX=0.718;entryY=-0.067;entryDx=0;entryDy=0;entryPerimeter=0;" parent="1" source="mf_PLKOSiDefCwh0_vWu-22" target="mf_PLKOSiDefCwh0_vWu-40" edge="1">
          <mxGeometry relative="1" as="geometry">
            <Array as="points">
              <mxPoint x="685" y="460" />
              <mxPoint x="750" y="460" />
              <mxPoint x="750" y="490" />
              <mxPoint x="762" y="490" />
            </Array>
          </mxGeometry>
        </mxCell>
        <mxCell id="mf_PLKOSiDefCwh0_vWu-43" value="&lt;h1 style=&quot;margin-top: 0px;&quot;&gt;Problems:&lt;/h1&gt;&lt;div&gt;- split -&amp;gt; full update HTree&lt;/div&gt;&lt;p&gt;- retry -&amp;gt; delay | read amplification&lt;/p&gt;" style="text;html=1;whiteSpace=wrap;overflow=hidden;rounded=0;" parent="1" vertex="1">
          <mxGeometry x="42.5" y="690" width="205" height="120" as="geometry" />
        </mxCell>
        <mxCell id="mf_PLKOSiDefCwh0_vWu-44" style="edgeStyle=orthogonalEdgeStyle;rounded=0;orthogonalLoop=1;jettySize=auto;html=1;exitX=0.5;exitY=1;exitDx=0;exitDy=0;" parent="1" source="mf_PLKOSiDefCwh0_vWu-46" target="mf_PLKOSiDefCwh0_vWu-48" edge="1">
          <mxGeometry relative="1" as="geometry">
            <Array as="points">
              <mxPoint x="480" y="850" />
              <mxPoint x="275" y="850" />
            </Array>
          </mxGeometry>
        </mxCell>
        <mxCell id="mf_PLKOSiDefCwh0_vWu-45" style="edgeStyle=orthogonalEdgeStyle;rounded=0;orthogonalLoop=1;jettySize=auto;html=1;exitX=0.5;exitY=1;exitDx=0;exitDy=0;entryX=0.5;entryY=0;entryDx=0;entryDy=0;" parent="1" source="mf_PLKOSiDefCwh0_vWu-46" target="mf_PLKOSiDefCwh0_vWu-50" edge="1">
          <mxGeometry relative="1" as="geometry">
            <Array as="points">
              <mxPoint x="480" y="850" />
              <mxPoint x="705" y="850" />
            </Array>
          </mxGeometry>
        </mxCell>
        <mxCell id="mf_PLKOSiDefCwh0_vWu-46" value="idx: 0 | 4" style="rounded=0;whiteSpace=wrap;html=1;align=center;" parent="1" vertex="1">
          <mxGeometry x="330" y="810" width="299" height="30" as="geometry" />
        </mxCell>
        <mxCell id="mf_PLKOSiDefCwh0_vWu-47" style="edgeStyle=orthogonalEdgeStyle;rounded=0;orthogonalLoop=1;jettySize=auto;html=1;exitX=0.5;exitY=1;exitDx=0;exitDy=0;entryX=0.541;entryY=0.067;entryDx=0;entryDy=0;entryPerimeter=0;" parent="1" source="mf_PLKOSiDefCwh0_vWu-48" target="mf_PLKOSiDefCwh0_vWu-52" edge="1">
          <mxGeometry relative="1" as="geometry">
            <mxPoint x="280" y="910" as="sourcePoint" />
            <mxPoint x="390" y="940" as="targetPoint" />
            <Array as="points">
              <mxPoint x="275" y="920" />
              <mxPoint x="391" y="920" />
            </Array>
          </mxGeometry>
        </mxCell>
        <mxCell id="mf_PLKOSiDefCwh0_vWu-48" value="idx: 0 | 2" style="rounded=0;whiteSpace=wrap;html=1;align=left;" parent="1" vertex="1">
          <mxGeometry x="190" y="870" width="170" height="30" as="geometry" />
        </mxCell>
        <mxCell id="mf_PLKOSiDefCwh0_vWu-49" style="edgeStyle=orthogonalEdgeStyle;rounded=0;orthogonalLoop=1;jettySize=auto;html=1;exitX=0.5;exitY=1;exitDx=0;exitDy=0;entryX=0.5;entryY=0;entryDx=0;entryDy=0;" parent="1" source="mf_PLKOSiDefCwh0_vWu-50" target="mf_PLKOSiDefCwh0_vWu-54" edge="1">
          <mxGeometry relative="1" as="geometry">
            <Array as="points">
              <mxPoint x="705" y="910" />
              <mxPoint x="845" y="910" />
            </Array>
          </mxGeometry>
        </mxCell>
        <mxCell id="mf_PLKOSiDefCwh0_vWu-61" style="edgeStyle=orthogonalEdgeStyle;rounded=0;orthogonalLoop=1;jettySize=auto;html=1;exitX=0.25;exitY=1;exitDx=0;exitDy=0;entryX=0.5;entryY=0;entryDx=0;entryDy=0;dashed=1;" parent="1" source="mf_PLKOSiDefCwh0_vWu-50" target="mf_PLKOSiDefCwh0_vWu-59" edge="1">
          <mxGeometry relative="1" as="geometry" />
        </mxCell>
        <mxCell id="mf_PLKOSiDefCwh0_vWu-62" style="edgeStyle=orthogonalEdgeStyle;rounded=0;orthogonalLoop=1;jettySize=auto;html=1;exitX=0.25;exitY=1;exitDx=0;exitDy=0;entryX=0.5;entryY=0;entryDx=0;entryDy=0;dashed=1;" parent="1" source="mf_PLKOSiDefCwh0_vWu-50" target="mf_PLKOSiDefCwh0_vWu-58" edge="1">
          <mxGeometry relative="1" as="geometry" />
        </mxCell>
        <mxCell id="mf_PLKOSiDefCwh0_vWu-50" value="idx: 4 | 8" style="rounded=0;whiteSpace=wrap;html=1;align=left;" parent="1" vertex="1">
          <mxGeometry x="620" y="870" width="170" height="30" as="geometry" />
        </mxCell>
        <mxCell id="mf_PLKOSiDefCwh0_vWu-51" value="leaf: 0 name0 | 1 name1" style="rounded=0;whiteSpace=wrap;html=1;align=left;" parent="1" vertex="1">
          <mxGeometry x="90" y="930" width="170" height="30" as="geometry" />
        </mxCell>
        <mxCell id="mf_PLKOSiDefCwh0_vWu-52" value="leaf: 2 name2 | 3 name3" style="rounded=0;whiteSpace=wrap;html=1;align=left;" parent="1" vertex="1">
          <mxGeometry x="300" y="930" width="170" height="30" as="geometry" />
        </mxCell>
        <mxCell id="mf_PLKOSiDefCwh0_vWu-53" value="leaf: 4 name4 | 7 name7" style="rounded=0;whiteSpace=wrap;html=1;align=left;" parent="1" vertex="1">
          <mxGeometry x="449.5" y="1000" width="170" height="30" as="geometry" />
        </mxCell>
        <mxCell id="mf_PLKOSiDefCwh0_vWu-54" value="leaf: 8 name8" style="rounded=0;whiteSpace=wrap;html=1;align=left;" parent="1" vertex="1">
          <mxGeometry x="760" y="930" width="170" height="30" as="geometry" />
        </mxCell>
        <mxCell id="mf_PLKOSiDefCwh0_vWu-55" style="edgeStyle=orthogonalEdgeStyle;rounded=0;orthogonalLoop=1;jettySize=auto;html=1;exitX=0.25;exitY=1;exitDx=0;exitDy=0;entryX=0.435;entryY=0.033;entryDx=0;entryDy=0;entryPerimeter=0;" parent="1" source="mf_PLKOSiDefCwh0_vWu-50" target="mf_PLKOSiDefCwh0_vWu-53" edge="1">
          <mxGeometry relative="1" as="geometry" />
        </mxCell>
        <mxCell id="mf_PLKOSiDefCwh0_vWu-56" style="edgeStyle=orthogonalEdgeStyle;rounded=0;orthogonalLoop=1;jettySize=auto;html=1;exitX=0.5;exitY=1;exitDx=0;exitDy=0;entryX=0.459;entryY=0.167;entryDx=0;entryDy=0;entryPerimeter=0;" parent="1" source="mf_PLKOSiDefCwh0_vWu-48" target="mf_PLKOSiDefCwh0_vWu-51" edge="1">
          <mxGeometry relative="1" as="geometry">
            <Array as="points">
              <mxPoint x="275" y="910" />
              <mxPoint x="168" y="910" />
            </Array>
          </mxGeometry>
        </mxCell>
        <mxCell id="mf_PLKOSiDefCwh0_vWu-57" value="HTree versioning" style="text;html=1;align=center;verticalAlign=middle;whiteSpace=wrap;rounded=0;" parent="1" vertex="1">
          <mxGeometry x="449.5" y="760" width="60" height="30" as="geometry" />
        </mxCell>
        <mxCell id="mf_PLKOSiDefCwh0_vWu-58" value="leaf: 6 name6 | 7 name7" style="rounded=0;whiteSpace=wrap;html=1;align=left;" parent="1" vertex="1">
          <mxGeometry x="800" y="1050" width="170" height="30" as="geometry" />
        </mxCell>
        <mxCell id="mf_PLKOSiDefCwh0_vWu-59" value="leaf: 4 name4" style="rounded=0;whiteSpace=wrap;html=1;align=left;" parent="1" vertex="1">
          <mxGeometry x="595" y="1050" width="170" height="30" as="geometry" />
        </mxCell>
        <mxCell id="mf_PLKOSiDefCwh0_vWu-63" value="v1" style="text;html=1;align=center;verticalAlign=middle;whiteSpace=wrap;rounded=0;fillColor=#9999FF;" parent="1" vertex="1">
          <mxGeometry x="590" y="1000" width="60" height="30" as="geometry" />
        </mxCell>
        <mxCell id="mf_PLKOSiDefCwh0_vWu-64" value="v2" style="text;html=1;align=center;verticalAlign=middle;whiteSpace=wrap;rounded=0;fillColor=#CCFF99;" parent="1" vertex="1">
          <mxGeometry x="720" y="1050" width="60" height="30" as="geometry" />
        </mxCell>
        <mxCell id="mf_PLKOSiDefCwh0_vWu-66" value="v2" style="text;html=1;align=center;verticalAlign=middle;whiteSpace=wrap;rounded=0;fillColor=#CCFF99;" parent="1" vertex="1">
          <mxGeometry x="940" y="1050" width="60" height="30" as="geometry" />
        </mxCell>
        <mxCell id="mf_PLKOSiDefCwh0_vWu-67" value="&lt;h1 style=&quot;margin-top: 0px;&quot;&gt;Problems:&lt;/h1&gt;&lt;div&gt;-&amp;nbsp;&lt;span style=&quot;background-color: transparent; color: light-dark(rgb(0, 0, 0), rgb(255, 255, 255));&quot;&gt;split -&amp;nbsp;&lt;/span&gt;&lt;span style=&quot;background-color: transparent; color: light-dark(rgb(0, 0, 0), rgb(255, 255, 255));&quot;&gt;+1 block&lt;/span&gt;&lt;/div&gt;&lt;p&gt;-&amp;nbsp;&lt;span style=&quot;background-color: transparent; color: light-dark(rgb(0, 0, 0), rgb(255, 255, 255));&quot;&gt;split - возможен&amp;nbsp;&lt;/span&gt;&lt;span style=&quot;background-color: transparent; color: light-dark(rgb(0, 0, 0), rgb(255, 255, 255));&quot;&gt;retry чтения индексного блока&lt;/span&gt;&lt;/p&gt;" style="text;html=1;whiteSpace=wrap;overflow=hidden;rounded=0;" parent="1" vertex="1">
          <mxGeometry x="70" y="1070" width="205" height="120" as="geometry" />
        </mxCell>
        <mxCell id="mf_PLKOSiDefCwh0_vWu-69" value="&lt;h1 style=&quot;margin-top: 0px;&quot;&gt;Появление новой версии:&lt;/h1&gt;&lt;p&gt;1) создаем v2 leafs&lt;/p&gt;&lt;p&gt;2) обновляем индексный блок&lt;/p&gt;&lt;p&gt;3) помечаем v1 leaf блок как устаревший (если клиент прочитал устаревший блок то он должен перечитать родителя (индексный блок))&lt;/p&gt;" style="text;html=1;whiteSpace=wrap;overflow=hidden;rounded=0;" parent="1" vertex="1">
          <mxGeometry x="70" y="1200" width="480" height="190" as="geometry" />
        </mxCell>
        <mxCell id="04HmaOA_3xTZ1o9605H1-1" value="" style="endArrow=none;html=1;rounded=0;" parent="1" edge="1">
          <mxGeometry width="50" height="50" relative="1" as="geometry">
            <mxPoint x="300" y="1820" as="sourcePoint" />
            <mxPoint x="300" y="1450" as="targetPoint" />
          </mxGeometry>
        </mxCell>
        <mxCell id="04HmaOA_3xTZ1o9605H1-2" value="" style="endArrow=none;html=1;rounded=0;" parent="1" edge="1">
          <mxGeometry width="50" height="50" relative="1" as="geometry">
            <mxPoint x="640" y="1830" as="sourcePoint" />
            <mxPoint x="640" y="1460" as="targetPoint" />
          </mxGeometry>
        </mxCell>
        <mxCell id="04HmaOA_3xTZ1o9605H1-4" value="Ex 1" style="text;html=1;align=center;verticalAlign=middle;whiteSpace=wrap;rounded=0;" parent="1" vertex="1">
          <mxGeometry x="260" y="1420" width="60" height="30" as="geometry" />
        </mxCell>
        <mxCell id="04HmaOA_3xTZ1o9605H1-5" value="Ex 2" style="text;html=1;align=center;verticalAlign=middle;whiteSpace=wrap;rounded=0;" parent="1" vertex="1">
          <mxGeometry x="610" y="1420" width="60" height="30" as="geometry" />
        </mxCell>
        <mxCell id="04HmaOA_3xTZ1o9605H1-6" value="" style="endArrow=classic;html=1;rounded=0;" parent="1" edge="1">
          <mxGeometry width="50" height="50" relative="1" as="geometry">
            <mxPoint x="310" y="1500" as="sourcePoint" />
            <mxPoint x="630" y="1540" as="targetPoint" />
          </mxGeometry>
        </mxCell>
        <mxCell id="04HmaOA_3xTZ1o9605H1-7" value="Ref cnt {+1}" style="text;html=1;align=center;verticalAlign=middle;whiteSpace=wrap;rounded=0;" parent="1" vertex="1">
          <mxGeometry x="396.75" y="1490" width="155" height="30" as="geometry" />
        </mxCell>
        <mxCell id="04HmaOA_3xTZ1o9605H1-8" value="Создали запись в HTree" style="text;html=1;align=center;verticalAlign=middle;whiteSpace=wrap;rounded=0;" parent="1" vertex="1">
          <mxGeometry x="225" y="1480" width="60" height="30" as="geometry" />
        </mxCell>
        <mxCell id="04HmaOA_3xTZ1o9605H1-9" value="Ex1 + name_hl: Rc (+1) on disc&amp;nbsp;" style="text;html=1;align=center;verticalAlign=middle;whiteSpace=wrap;rounded=0;" parent="1" vertex="1">
          <mxGeometry x="640" y="1550" width="115" height="30" as="geometry" />
        </mxCell>
        <mxCell id="04HmaOA_3xTZ1o9605H1-10" value="" style="endArrow=classic;html=1;rounded=0;" parent="1" edge="1">
          <mxGeometry width="50" height="50" relative="1" as="geometry">
            <mxPoint x="630" y="1580" as="sourcePoint" />
            <mxPoint x="320" y="1620" as="targetPoint" />
          </mxGeometry>
        </mxCell>
        <mxCell id="04HmaOA_3xTZ1o9605H1-11" value="Save OK" style="text;html=1;align=center;verticalAlign=middle;whiteSpace=wrap;rounded=0;" parent="1" vertex="1">
          <mxGeometry x="429.5" y="1570" width="60" height="30" as="geometry" />
        </mxCell>
        <mxCell id="04HmaOA_3xTZ1o9605H1-13" value="" style="endArrow=classic;html=1;rounded=0;" parent="1" edge="1">
          <mxGeometry width="50" height="50" relative="1" as="geometry">
            <mxPoint x="330" y="1640" as="sourcePoint" />
            <mxPoint x="610" y="1720" as="targetPoint" />
          </mxGeometry>
        </mxCell>
        <mxCell id="04HmaOA_3xTZ1o9605H1-14" value="-1 replace to INO" style="text;html=1;align=center;verticalAlign=middle;whiteSpace=wrap;rounded=0;" parent="1" vertex="1">
          <mxGeometry x="190" y="1610" width="100" height="30" as="geometry" />
        </mxCell>
        <mxCell id="04HmaOA_3xTZ1o9605H1-15" value="commit" style="text;html=1;align=center;verticalAlign=middle;whiteSpace=wrap;rounded=0;" parent="1" vertex="1">
          <mxGeometry x="450" y="1650" width="60" height="30" as="geometry" />
        </mxCell>
        <mxCell id="04HmaOA_3xTZ1o9605H1-16" value="1) RC + 1&lt;div&gt;2) Remove Rc (+1)&lt;/div&gt;" style="text;html=1;align=center;verticalAlign=middle;whiteSpace=wrap;rounded=0;" parent="1" vertex="1">
          <mxGeometry x="640" y="1700" width="130" height="90" as="geometry" />
        </mxCell>
        <mxCell id="04HmaOA_3xTZ1o9605H1-19" value="" style="endArrow=none;html=1;rounded=0;fillColor=#f8cecc;strokeColor=#b85450;strokeWidth=2;" parent="1" edge="1">
          <mxGeometry width="50" height="50" relative="1" as="geometry">
            <mxPoint x="740" y="1600" as="sourcePoint" />
            <mxPoint x="249" y="1600" as="targetPoint" />
          </mxGeometry>
        </mxCell>
        <mxCell id="04HmaOA_3xTZ1o9605H1-20" value="" style="endArrow=none;html=1;rounded=0;fillColor=#f8cecc;strokeColor=#b85450;strokeWidth=2;" parent="1" edge="1">
          <mxGeometry width="50" height="50" relative="1" as="geometry">
            <mxPoint x="741" y="1744.5" as="sourcePoint" />
            <mxPoint x="250" y="1744.5" as="targetPoint" />
          </mxGeometry>
        </mxCell>
        <mxCell id="BeQctFbGjYON3i-OoHZe-1" value="A1" style="text;html=1;align=center;verticalAlign=middle;whiteSpace=wrap;rounded=0;strokeWidth=3;fontSize=18;fontColor=light-dark(#e90101, #ededed);" parent="1" vertex="1">
          <mxGeometry x="730" y="1590" width="60" height="30" as="geometry" />
        </mxCell>
        <mxCell id="BeQctFbGjYON3i-OoHZe-2" value="A3" style="text;html=1;align=center;verticalAlign=middle;whiteSpace=wrap;rounded=0;strokeWidth=3;fontSize=18;fontColor=light-dark(#e90101, #ededed);" parent="1" vertex="1">
          <mxGeometry x="760" y="1730" width="60" height="30" as="geometry" />
        </mxCell>
        <mxCell id="BeQctFbGjYON3i-OoHZe-3" value="&lt;font style=&quot;font-size: 14px;&quot;&gt;A1: Произошла авария в результате которой Ex1 не принял SAVE OK.&lt;/font&gt;&lt;div&gt;&lt;font style=&quot;font-size: 14px;&quot;&gt;Резолвим аварию при добавления хардлинка с тем же именем:&lt;br&gt;1) Ex1 видит что файл существует но его INO = -1.&lt;/font&gt;&lt;/div&gt;&lt;div&gt;&lt;font style=&quot;font-size: 14px;&quot;&gt;2) Ex1 делает запрос на Ex2 в котором проверяет наличие intention&lt;/font&gt;&lt;/div&gt;&lt;div&gt;&lt;font style=&quot;font-size: 14px;&quot;&gt;3) Если intention есть то Ex2 может его удалить и процесс создания HL повторяется&lt;/font&gt;&lt;/div&gt;&lt;div&gt;&lt;font style=&quot;font-size: 14px;&quot;&gt;4) Если intention нет то можно сразу повторять процесс создания HL&lt;/font&gt;&lt;/div&gt;&lt;div&gt;&lt;span style=&quot;font-size: 14px;&quot;&gt;3*) Ex1 достаточно отправить идемпотентный запрос на удаление intention&lt;/span&gt;&lt;/div&gt;" style="text;html=1;align=left;verticalAlign=middle;whiteSpace=wrap;rounded=0;" parent="1" vertex="1">
          <mxGeometry x="1020" y="1630" width="590" height="140" as="geometry" />
        </mxCell>
        <mxCell id="BeQctFbGjYON3i-OoHZe-5" value="&lt;font style=&quot;font-size: 14px;&quot;&gt;A3: Допустим мы заводим для файла на который делается HL блок в котором есть счетчик RC и список intention. В inode файла сохраняется ссылка на этот блок. Расмотрим аварию при которой блок создан но ссылка в inode не добавлена.&lt;/font&gt;&lt;div&gt;&lt;font style=&quot;font-size: 14px;&quot;&gt;Проблемы:&lt;/font&gt;&lt;/div&gt;&lt;div&gt;&lt;font style=&quot;font-size: 14px;&quot;&gt;1) созданый блок будет потерян&lt;/font&gt;&lt;/div&gt;&lt;div&gt;&lt;font style=&quot;font-size: 14px;&quot;&gt;2) при ребуте mds могут оставаться невыполненые intention для inode. Т.к. такие intention необходимо либо разбудить либо удалить. А значит необходим fullscan при перезагрузке либо repair процесс который тригерится по доступу к inode (через Ex2).&lt;/font&gt;&lt;/div&gt;" style="text;html=1;align=left;verticalAlign=middle;whiteSpace=wrap;rounded=0;" parent="1" vertex="1">
          <mxGeometry x="190" y="2160" width="590" height="140" as="geometry" />
        </mxCell>
        <mxCell id="BeQctFbGjYON3i-OoHZe-7" value="" style="endArrow=none;dashed=1;html=1;dashPattern=1 3;strokeWidth=2;rounded=0;" parent="1" edge="1">
          <mxGeometry width="50" height="50" relative="1" as="geometry">
            <mxPoint x="340" y="1820" as="sourcePoint" />
            <mxPoint x="340" y="1450" as="targetPoint" />
          </mxGeometry>
        </mxCell>
        <mxCell id="BeQctFbGjYON3i-OoHZe-8" value="TX cord" style="text;html=1;align=center;verticalAlign=middle;whiteSpace=wrap;rounded=0;" parent="1" vertex="1">
          <mxGeometry x="310" y="1420" width="60" height="30" as="geometry" />
        </mxCell>
        <mxCell id="BeQctFbGjYON3i-OoHZe-9" value="A1: В Ex1 приходит запрос на добавление HL &quot;name1&quot; в htree для этого имени есть запись name1: -1.&lt;div&gt;1) отправляем {&lt;span style=&quot;text-align: center; background-color: transparent; color: light-dark(rgb(0, 0, 0), rgb(255, 255, 255));&quot;&gt;Ref cnt {+1}&lt;/span&gt;&lt;span style=&quot;background-color: transparent; color: light-dark(rgb(0, 0, 0), rgb(255, 255, 255));&quot;&gt;} на Ex2&lt;/span&gt;&lt;/div&gt;&lt;div&gt;&lt;span style=&quot;background-color: transparent; color: light-dark(rgb(0, 0, 0), rgb(255, 255, 255));&quot;&gt;2) отдаем клиенту EAGAIN&lt;/span&gt;&lt;/div&gt;&lt;div&gt;&lt;span style=&quot;background-color: transparent; color: light-dark(rgb(0, 0, 0), rgb(255, 255, 255));&quot;&gt;3) Ex2 доходит до запроса&amp;nbsp;&lt;/span&gt;&lt;span style=&quot;background-color: transparent; color: light-dark(rgb(0, 0, 0), rgb(255, 255, 255));&quot;&gt;{&lt;/span&gt;&lt;span style=&quot;background-color: transparent; color: light-dark(rgb(0, 0, 0), rgb(255, 255, 255)); text-align: center;&quot;&gt;Ref cnt {+1}&lt;/span&gt;&lt;span style=&quot;background-color: transparent; color: light-dark(rgb(0, 0, 0), rgb(255, 255, 255));&quot;&gt;}&lt;/span&gt;&lt;/div&gt;&lt;div&gt;&lt;span style=&quot;background-color: transparent; color: light-dark(rgb(0, 0, 0), rgb(255, 255, 255));&quot;&gt;3) Ex2 проверяет наличие intetion&lt;/span&gt;&lt;span style=&quot;background-color: transparent; color: light-dark(rgb(0, 0, 0), rgb(255, 255, 255));&quot;&gt;&amp;nbsp;в inode&lt;/span&gt;&lt;/div&gt;&lt;div&gt;&lt;span style=&quot;background-color: transparent; color: light-dark(rgb(0, 0, 0), rgb(255, 255, 255));&quot;&gt;4) Если нет, то создаем, далее по алгоритму&lt;/span&gt;&lt;/div&gt;&lt;div&gt;&lt;span style=&quot;background-color: transparent; color: light-dark(rgb(0, 0, 0), rgb(255, 255, 255));&quot;&gt;5) Если есть далее по алгоритму (без создания)&lt;/span&gt;&lt;/div&gt;&lt;div&gt;&lt;span style=&quot;background-color: transparent; color: light-dark(rgb(0, 0, 0), rgb(255, 255, 255));&quot;&gt;&lt;br&gt;&lt;/span&gt;&lt;/div&gt;&lt;div&gt;A2: В Ex2 приходит запрос на удаление объекта, у которого есть не выполненый entention (потеря комита Ex1 -&amp;gt; Ex2):&lt;/div&gt;&lt;div&gt;1) Ex2 отправляет save OK&lt;/div&gt;&lt;div&gt;2) Ex1 проверяет HL на INO = -1&lt;/div&gt;&lt;div&gt;3) Если INO = -1, то -1 replace to INO, далее по алгоритму&amp;nbsp;&lt;span style=&quot;background-color: transparent; color: light-dark(rgb(0, 0, 0), rgb(255, 255, 255));&quot;&gt;(commit)&lt;/span&gt;&lt;/div&gt;&lt;div&gt;4) Eсли INO != -1, то далее по алгоритму (commit)&lt;/div&gt;" style="text;html=1;align=left;verticalAlign=middle;whiteSpace=wrap;rounded=0;fontSize=14;" parent="1" vertex="1">
          <mxGeometry x="190" y="1820" width="410" height="280" as="geometry" />
        </mxCell>
        <mxCell id="BeQctFbGjYON3i-OoHZe-10" value="ADD -1 TO HL" style="text;html=1;align=center;verticalAlign=middle;whiteSpace=wrap;rounded=0;" parent="1" vertex="1">
          <mxGeometry x="225" y="1520" width="60" height="30" as="geometry" />
        </mxCell>
        <mxCell id="BeQctFbGjYON3i-OoHZe-11" value="Maybe Ex1 intetion leak before next OP" style="text;html=1;align=center;verticalAlign=middle;whiteSpace=wrap;rounded=0;fontColor=#FF0A0A;" parent="1" vertex="1">
          <mxGeometry x="570" y="1860" width="220" height="30" as="geometry" />
        </mxCell>
        <mxCell id="BeQctFbGjYON3i-OoHZe-12" value="" style="endArrow=classic;html=1;rounded=0;" parent="1" edge="1">
          <mxGeometry width="50" height="50" relative="1" as="geometry">
            <mxPoint x="130" y="1600" as="sourcePoint" />
            <mxPoint x="290" y="1560" as="targetPoint" />
          </mxGeometry>
        </mxCell>
        <mxCell id="BeQctFbGjYON3i-OoHZe-13" value="Yeild" style="text;html=1;align=center;verticalAlign=middle;whiteSpace=wrap;rounded=0;" parent="1" vertex="1">
          <mxGeometry x="80" y="1590" width="60" height="30" as="geometry" />
        </mxCell>
        <mxCell id="BeQctFbGjYON3i-OoHZe-17" value="Журнал" style="rounded=0;whiteSpace=wrap;html=1;" parent="1" vertex="1">
          <mxGeometry x="230" y="2338" width="120" height="60" as="geometry" />
        </mxCell>
        <mxCell id="BeQctFbGjYON3i-OoHZe-18" value="" style="rounded=0;whiteSpace=wrap;html=1;" parent="1" vertex="1">
          <mxGeometry x="230" y="2338" width="30" height="60" as="geometry" />
        </mxCell>
        <mxCell id="BeQctFbGjYON3i-OoHZe-19" value="LSN" style="text;html=1;align=center;verticalAlign=middle;whiteSpace=wrap;rounded=0;" parent="1" vertex="1">
          <mxGeometry x="215" y="2400" width="60" height="30" as="geometry" />
        </mxCell>
        <mxCell id="BeQctFbGjYON3i-OoHZe-20" value="&lt;div style=&quot;&quot;&gt;&lt;span style=&quot;background-color: transparent; color: light-dark(rgb(0, 0, 0), rgb(255, 255, 255));&quot;&gt;Inode:&lt;/span&gt;&lt;/div&gt;&lt;div style=&quot;&quot;&gt;&lt;span style=&quot;background-color: transparent; color: light-dark(rgb(0, 0, 0), rgb(255, 255, 255));&quot;&gt;rc: 0&lt;/span&gt;&lt;/div&gt;&lt;div style=&quot;&quot;&gt;rc_lsn: 0&lt;/div&gt;&lt;div&gt;&lt;br&gt;&lt;/div&gt;" style="text;html=1;align=left;verticalAlign=middle;whiteSpace=wrap;rounded=0;" parent="1" vertex="1">
          <mxGeometry x="510" y="2338" width="320" height="92" as="geometry" />
        </mxCell>
        <mxCell id="BeQctFbGjYON3i-OoHZe-21" value="Intention list" style="text;html=1;align=center;verticalAlign=middle;whiteSpace=wrap;rounded=0;" parent="1" vertex="1">
          <mxGeometry x="275" y="2400" width="90" height="30" as="geometry" />
        </mxCell>
        <mxCell id="BeQctFbGjYON3i-OoHZe-23" value="Авария: блок inеntion записан, inode не изменена&lt;div&gt;&lt;br&gt;&lt;/div&gt;&lt;div&gt;Запись intention:&lt;/div&gt;&lt;div&gt;intention в журнал, lsn = 1&lt;/div&gt;&lt;div&gt;&lt;br&gt;&lt;/div&gt;&lt;div&gt;Процесс востановления после аварии (Ex2 reboot):&lt;/div&gt;&lt;div&gt;Просматриваем журнал&lt;/div&gt;&lt;div&gt;Видим intention с lsn == 1&lt;/div&gt;&lt;div&gt;идем в inode rc_lsn == 0&lt;/div&gt;&lt;div&gt;&lt;br&gt;&lt;/div&gt;" style="text;html=1;align=left;verticalAlign=middle;whiteSpace=wrap;rounded=0;" parent="1" vertex="1">
          <mxGeometry x="225" y="2440" width="285" height="140" as="geometry" />
        </mxCell>
        <mxCell id="io7rObgqiktNB00ZLA3A-1" value="{ 4; 0 }" style="text;html=1;align=center;verticalAlign=middle;whiteSpace=wrap;rounded=0;fillColor=#9999FF;" parent="1" vertex="1">
          <mxGeometry x="785" y="530" width="60" height="30" as="geometry" />
        </mxCell>
        <mxCell id="io7rObgqiktNB00ZLA3A-2" value="{ 4; 0 }" style="text;html=1;align=center;verticalAlign=middle;whiteSpace=wrap;rounded=0;fillColor=#9999FF;" parent="1" vertex="1">
          <mxGeometry x="629" y="480" width="60" height="30" as="geometry" />
        </mxCell>
        <mxCell id="MJ5-J80cCLJe8jQIAeMC-1" style="edgeStyle=orthogonalEdgeStyle;rounded=0;orthogonalLoop=1;jettySize=auto;html=1;exitX=0.5;exitY=1;exitDx=0;exitDy=0;" parent="1" source="MJ5-J80cCLJe8jQIAeMC-3" target="MJ5-J80cCLJe8jQIAeMC-5" edge="1">
          <mxGeometry relative="1" as="geometry">
            <Array as="points">
              <mxPoint x="540" y="2690" />
              <mxPoint x="335" y="2690" />
            </Array>
          </mxGeometry>
        </mxCell>
        <mxCell id="MJ5-J80cCLJe8jQIAeMC-2" style="edgeStyle=orthogonalEdgeStyle;rounded=0;orthogonalLoop=1;jettySize=auto;html=1;exitX=0.5;exitY=1;exitDx=0;exitDy=0;entryX=0.5;entryY=0;entryDx=0;entryDy=0;" parent="1" source="MJ5-J80cCLJe8jQIAeMC-3" target="MJ5-J80cCLJe8jQIAeMC-7" edge="1">
          <mxGeometry relative="1" as="geometry">
            <Array as="points">
              <mxPoint x="540" y="2690" />
              <mxPoint x="765" y="2690" />
            </Array>
          </mxGeometry>
        </mxCell>
        <mxCell id="MJ5-J80cCLJe8jQIAeMC-3" value="idx" style="rounded=0;whiteSpace=wrap;html=1;align=center;" parent="1" vertex="1">
          <mxGeometry x="390" y="2650" width="299" height="30" as="geometry" />
        </mxCell>
        <mxCell id="MJ5-J80cCLJe8jQIAeMC-5" value="file1" style="rounded=0;whiteSpace=wrap;html=1;align=left;" parent="1" vertex="1">
          <mxGeometry x="250" y="2710" width="170" height="30" as="geometry" />
        </mxCell>
        <mxCell id="MJ5-J80cCLJe8jQIAeMC-7" value="file2" style="rounded=0;whiteSpace=wrap;html=1;align=left;" parent="1" vertex="1">
          <mxGeometry x="680" y="2710" width="170" height="30" as="geometry" />
        </mxCell>
        <mxCell id="MJ5-J80cCLJe8jQIAeMC-14" value="{ 3; 3 }" style="text;html=1;align=center;verticalAlign=middle;whiteSpace=wrap;rounded=0;fillColor=#9999FF;" parent="1" vertex="1">
          <mxGeometry x="629" y="2650" width="60" height="30" as="geometry" />
        </mxCell>
        <mxCell id="MJ5-J80cCLJe8jQIAeMC-15" value="{ 3; 0 }" style="text;html=1;align=center;verticalAlign=middle;whiteSpace=wrap;rounded=0;fillColor=#9999FF;" parent="1" vertex="1">
          <mxGeometry x="790" y="2710" width="60" height="30" as="geometry" />
        </mxCell>
        <mxCell id="MJ5-J80cCLJe8jQIAeMC-16" value="{ 3; 0}" style="text;html=1;align=center;verticalAlign=middle;whiteSpace=wrap;rounded=0;fillColor=#9999FF;" parent="1" vertex="1">
          <mxGeometry x="360" y="2710" width="60" height="30" as="geometry" />
        </mxCell>
        <mxCell id="MJ5-J80cCLJe8jQIAeMC-24" value="Read 2" style="text;html=1;align=center;verticalAlign=middle;whiteSpace=wrap;rounded=0;" parent="1" vertex="1">
          <mxGeometry x="187.5" y="2710" width="60" height="30" as="geometry" />
        </mxCell>
        <mxCell id="MJ5-J80cCLJe8jQIAeMC-25" value="Read 1" style="text;html=1;align=center;verticalAlign=middle;whiteSpace=wrap;rounded=0;" parent="1" vertex="1">
          <mxGeometry x="320" y="2650" width="60" height="30" as="geometry" />
        </mxCell>
        <mxCell id="MJ5-J80cCLJe8jQIAeMC-27" style="edgeStyle=orthogonalEdgeStyle;rounded=0;orthogonalLoop=1;jettySize=auto;html=1;exitX=0.5;exitY=1;exitDx=0;exitDy=0;" parent="1" source="MJ5-J80cCLJe8jQIAeMC-29" target="MJ5-J80cCLJe8jQIAeMC-30" edge="1">
          <mxGeometry relative="1" as="geometry">
            <Array as="points">
              <mxPoint x="542.5" y="2840" />
              <mxPoint x="337.5" y="2840" />
            </Array>
          </mxGeometry>
        </mxCell>
        <mxCell id="MJ5-J80cCLJe8jQIAeMC-28" style="edgeStyle=orthogonalEdgeStyle;rounded=0;orthogonalLoop=1;jettySize=auto;html=1;exitX=0.5;exitY=1;exitDx=0;exitDy=0;entryX=0.5;entryY=0;entryDx=0;entryDy=0;" parent="1" source="MJ5-J80cCLJe8jQIAeMC-29" target="MJ5-J80cCLJe8jQIAeMC-31" edge="1">
          <mxGeometry relative="1" as="geometry">
            <Array as="points">
              <mxPoint x="542" y="2840" />
              <mxPoint x="640" y="2840" />
            </Array>
          </mxGeometry>
        </mxCell>
        <mxCell id="MJ5-J80cCLJe8jQIAeMC-38" style="edgeStyle=orthogonalEdgeStyle;rounded=0;orthogonalLoop=1;jettySize=auto;html=1;exitX=0.5;exitY=1;exitDx=0;exitDy=0;entryX=0.5;entryY=0;entryDx=0;entryDy=0;" parent="1" source="MJ5-J80cCLJe8jQIAeMC-29" target="MJ5-J80cCLJe8jQIAeMC-37" edge="1">
          <mxGeometry relative="1" as="geometry">
            <Array as="points">
              <mxPoint x="542" y="2840" />
              <mxPoint x="955" y="2840" />
            </Array>
          </mxGeometry>
        </mxCell>
        <mxCell id="MJ5-J80cCLJe8jQIAeMC-29" value="idx" style="rounded=0;whiteSpace=wrap;html=1;align=center;" parent="1" vertex="1">
          <mxGeometry x="392.5" y="2800" width="299" height="30" as="geometry" />
        </mxCell>
        <mxCell id="MJ5-J80cCLJe8jQIAeMC-30" value="" style="rounded=0;whiteSpace=wrap;html=1;align=left;" parent="1" vertex="1">
          <mxGeometry x="252.5" y="2860" width="170" height="30" as="geometry" />
        </mxCell>
        <mxCell id="MJ5-J80cCLJe8jQIAeMC-31" value="file2" style="rounded=0;whiteSpace=wrap;html=1;align=left;" parent="1" vertex="1">
          <mxGeometry x="555" y="2860" width="170" height="30" as="geometry" />
        </mxCell>
        <mxCell id="MJ5-J80cCLJe8jQIAeMC-32" value="{ 3; 4 }" style="text;html=1;align=center;verticalAlign=middle;whiteSpace=wrap;rounded=0;fillColor=#9999FF;" parent="1" vertex="1">
          <mxGeometry x="631.5" y="2800" width="60" height="30" as="geometry" />
        </mxCell>
        <mxCell id="MJ5-J80cCLJe8jQIAeMC-33" value="{ 4; 0 }" style="text;html=1;align=center;verticalAlign=middle;whiteSpace=wrap;rounded=0;fillColor=#9999FF;" parent="1" vertex="1">
          <mxGeometry x="689" y="2860" width="60" height="30" as="geometry" />
        </mxCell>
        <mxCell id="MJ5-J80cCLJe8jQIAeMC-34" value="{ 3; 0}" style="text;html=1;align=center;verticalAlign=middle;whiteSpace=wrap;rounded=0;fillColor=#9999FF;" parent="1" vertex="1">
          <mxGeometry x="362.5" y="2860" width="60" height="30" as="geometry" />
        </mxCell>
        <mxCell id="MJ5-J80cCLJe8jQIAeMC-37" value="file2.1" style="rounded=0;whiteSpace=wrap;html=1;align=left;" parent="1" vertex="1">
          <mxGeometry x="870" y="2860" width="170" height="30" as="geometry" />
        </mxCell>
        <mxCell id="MJ5-J80cCLJe8jQIAeMC-40" value="{ 4; 0 }" style="text;html=1;align=center;verticalAlign=middle;whiteSpace=wrap;rounded=0;fillColor=#9999FF;" parent="1" vertex="1">
          <mxGeometry x="980" y="2860" width="60" height="30" as="geometry" />
        </mxCell>
        <mxCell id="MJ5-J80cCLJe8jQIAeMC-41" style="edgeStyle=orthogonalEdgeStyle;rounded=0;orthogonalLoop=1;jettySize=auto;html=1;exitX=0.5;exitY=1;exitDx=0;exitDy=0;" parent="1" source="MJ5-J80cCLJe8jQIAeMC-44" target="MJ5-J80cCLJe8jQIAeMC-45" edge="1">
          <mxGeometry relative="1" as="geometry">
            <Array as="points">
              <mxPoint x="536.25" y="2990" />
              <mxPoint x="331.25" y="2990" />
            </Array>
          </mxGeometry>
        </mxCell>
        <mxCell id="MJ5-J80cCLJe8jQIAeMC-42" style="edgeStyle=orthogonalEdgeStyle;rounded=0;orthogonalLoop=1;jettySize=auto;html=1;exitX=0.5;exitY=1;exitDx=0;exitDy=0;entryX=0.5;entryY=0;entryDx=0;entryDy=0;" parent="1" source="MJ5-J80cCLJe8jQIAeMC-44" target="MJ5-J80cCLJe8jQIAeMC-46" edge="1">
          <mxGeometry relative="1" as="geometry">
            <Array as="points">
              <mxPoint x="535.75" y="2990" />
              <mxPoint x="633.75" y="2990" />
            </Array>
          </mxGeometry>
        </mxCell>
        <mxCell id="MJ5-J80cCLJe8jQIAeMC-43" style="edgeStyle=orthogonalEdgeStyle;rounded=0;orthogonalLoop=1;jettySize=auto;html=1;exitX=0.5;exitY=1;exitDx=0;exitDy=0;entryX=0.5;entryY=0;entryDx=0;entryDy=0;" parent="1" source="MJ5-J80cCLJe8jQIAeMC-44" target="MJ5-J80cCLJe8jQIAeMC-50" edge="1">
          <mxGeometry relative="1" as="geometry">
            <Array as="points">
              <mxPoint x="536" y="2990" />
              <mxPoint x="949" y="2990" />
            </Array>
          </mxGeometry>
        </mxCell>
        <mxCell id="MJ5-J80cCLJe8jQIAeMC-44" value="idx" style="rounded=0;whiteSpace=wrap;html=1;align=center;" parent="1" vertex="1">
          <mxGeometry x="386.25" y="2950" width="299" height="30" as="geometry" />
        </mxCell>
        <mxCell id="MJ5-J80cCLJe8jQIAeMC-45" value="" style="rounded=0;whiteSpace=wrap;html=1;align=left;" parent="1" vertex="1">
          <mxGeometry x="246.25" y="3010" width="170" height="30" as="geometry" />
        </mxCell>
        <mxCell id="MJ5-J80cCLJe8jQIAeMC-46" value="file2" style="rounded=0;whiteSpace=wrap;html=1;align=left;" parent="1" vertex="1">
          <mxGeometry x="548.75" y="3010" width="170" height="30" as="geometry" />
        </mxCell>
        <mxCell id="MJ5-J80cCLJe8jQIAeMC-47" value="{ 3; 4 }" style="text;html=1;align=center;verticalAlign=middle;whiteSpace=wrap;rounded=0;fillColor=#9999FF;" parent="1" vertex="1">
          <mxGeometry x="625.25" y="2950" width="60" height="30" as="geometry" />
        </mxCell>
        <mxCell id="MJ5-J80cCLJe8jQIAeMC-48" value="{ 4; 0 }" style="text;html=1;align=center;verticalAlign=middle;whiteSpace=wrap;rounded=0;fillColor=#9999FF;" parent="1" vertex="1">
          <mxGeometry x="682.75" y="3010" width="60" height="30" as="geometry" />
        </mxCell>
        <mxCell id="MJ5-J80cCLJe8jQIAeMC-49" value="{ 3; 0}" style="text;html=1;align=center;verticalAlign=middle;whiteSpace=wrap;rounded=0;fillColor=#9999FF;" parent="1" vertex="1">
          <mxGeometry x="356.25" y="3010" width="60" height="30" as="geometry" />
        </mxCell>
        <mxCell id="MJ5-J80cCLJe8jQIAeMC-50" value="file2.1" style="rounded=0;whiteSpace=wrap;html=1;align=left;" parent="1" vertex="1">
          <mxGeometry x="863.75" y="3010" width="170" height="30" as="geometry" />
        </mxCell>
        <mxCell id="MJ5-J80cCLJe8jQIAeMC-51" value="{ 4; 0 }" style="text;html=1;align=center;verticalAlign=middle;whiteSpace=wrap;rounded=0;fillColor=#9999FF;" parent="1" vertex="1">
          <mxGeometry x="973.75" y="3010" width="60" height="30" as="geometry" />
        </mxCell>
        <mxCell id="MJ5-J80cCLJe8jQIAeMC-52" value="Read 3" style="text;html=1;align=center;verticalAlign=middle;whiteSpace=wrap;rounded=0;" parent="1" vertex="1">
          <mxGeometry x="488.75" y="3010" width="60" height="30" as="geometry" />
        </mxCell>
        <mxCell id="MJ5-J80cCLJe8jQIAeMC-53" value="Read 4" style="text;html=1;align=center;verticalAlign=middle;whiteSpace=wrap;rounded=0;" parent="1" vertex="1">
          <mxGeometry x="685.25" y="2950" width="60" height="30" as="geometry" />
        </mxCell>
        <mxCell id="MJ5-J80cCLJe8jQIAeMC-54" value="Read 5" style="text;html=1;align=center;verticalAlign=middle;whiteSpace=wrap;rounded=0;" parent="1" vertex="1">
          <mxGeometry x="490" y="3040" width="60" height="30" as="geometry" />
        </mxCell>
        <mxCell id="MJ5-J80cCLJe8jQIAeMC-55" value="Read 6" style="text;html=1;align=center;verticalAlign=middle;whiteSpace=wrap;rounded=0;" parent="1" vertex="1">
          <mxGeometry x="800" y="3010" width="60" height="30" as="geometry" />
        </mxCell>
        <mxCell id="BSGlOFfNUsuVt6koS_C1-1" style="edgeStyle=orthogonalEdgeStyle;rounded=0;orthogonalLoop=1;jettySize=auto;html=1;exitX=0.5;exitY=1;exitDx=0;exitDy=0;" edge="1" parent="1" source="BSGlOFfNUsuVt6koS_C1-3" target="BSGlOFfNUsuVt6koS_C1-5">
          <mxGeometry relative="1" as="geometry">
            <Array as="points">
              <mxPoint x="444.5" y="3547" />
              <mxPoint x="239.5" y="3547" />
            </Array>
          </mxGeometry>
        </mxCell>
        <mxCell id="BSGlOFfNUsuVt6koS_C1-2" style="edgeStyle=orthogonalEdgeStyle;rounded=0;orthogonalLoop=1;jettySize=auto;html=1;exitX=0.5;exitY=1;exitDx=0;exitDy=0;entryX=0.5;entryY=0;entryDx=0;entryDy=0;" edge="1" parent="1" source="BSGlOFfNUsuVt6koS_C1-3" target="BSGlOFfNUsuVt6koS_C1-8">
          <mxGeometry relative="1" as="geometry">
            <Array as="points">
              <mxPoint x="444.5" y="3547" />
              <mxPoint x="669.5" y="3547" />
            </Array>
          </mxGeometry>
        </mxCell>
        <mxCell id="BSGlOFfNUsuVt6koS_C1-3" value="0 | 4" style="rounded=0;whiteSpace=wrap;html=1;align=center;" vertex="1" parent="1">
          <mxGeometry x="294.5" y="3507" width="299" height="30" as="geometry" />
        </mxCell>
        <mxCell id="BSGlOFfNUsuVt6koS_C1-4" style="edgeStyle=orthogonalEdgeStyle;rounded=0;orthogonalLoop=1;jettySize=auto;html=1;exitX=0.5;exitY=1;exitDx=0;exitDy=0;entryX=0.541;entryY=0.067;entryDx=0;entryDy=0;entryPerimeter=0;" edge="1" parent="1" source="BSGlOFfNUsuVt6koS_C1-5" target="BSGlOFfNUsuVt6koS_C1-11">
          <mxGeometry relative="1" as="geometry">
            <mxPoint x="244.5" y="3607" as="sourcePoint" />
            <mxPoint x="354.5" y="3637" as="targetPoint" />
            <Array as="points">
              <mxPoint x="234.5" y="3607" />
              <mxPoint x="444.5" y="3607" />
            </Array>
          </mxGeometry>
        </mxCell>
        <mxCell id="BSGlOFfNUsuVt6koS_C1-5" value="&amp;nbsp;0 | 2" style="rounded=0;whiteSpace=wrap;html=1;align=center;" vertex="1" parent="1">
          <mxGeometry x="124.5" y="3567" width="220" height="30" as="geometry" />
        </mxCell>
        <mxCell id="BSGlOFfNUsuVt6koS_C1-6" style="edgeStyle=orthogonalEdgeStyle;rounded=0;orthogonalLoop=1;jettySize=auto;html=1;exitX=0.25;exitY=1;exitDx=0;exitDy=0;" edge="1" parent="1" source="BSGlOFfNUsuVt6koS_C1-8" target="BSGlOFfNUsuVt6koS_C1-16">
          <mxGeometry relative="1" as="geometry">
            <Array as="points">
              <mxPoint x="627.5" y="3687" />
              <mxPoint x="739.5" y="3687" />
            </Array>
          </mxGeometry>
        </mxCell>
        <mxCell id="BSGlOFfNUsuVt6koS_C1-7" style="edgeStyle=orthogonalEdgeStyle;rounded=0;orthogonalLoop=1;jettySize=auto;html=1;exitX=0.25;exitY=1;exitDx=0;exitDy=0;" edge="1" parent="1" source="BSGlOFfNUsuVt6koS_C1-8" target="BSGlOFfNUsuVt6koS_C1-13">
          <mxGeometry relative="1" as="geometry" />
        </mxCell>
        <mxCell id="BSGlOFfNUsuVt6koS_C1-8" value="4 | 8" style="rounded=0;whiteSpace=wrap;html=1;align=center;" vertex="1" parent="1">
          <mxGeometry x="584.5" y="3567" width="170" height="30" as="geometry" />
        </mxCell>
        <mxCell id="BSGlOFfNUsuVt6koS_C1-9" value="" style="edgeStyle=orthogonalEdgeStyle;rounded=0;orthogonalLoop=1;jettySize=auto;html=1;dashed=1;" edge="1" parent="1" source="BSGlOFfNUsuVt6koS_C1-10" target="BSGlOFfNUsuVt6koS_C1-23">
          <mxGeometry relative="1" as="geometry" />
        </mxCell>
        <mxCell id="BSGlOFfNUsuVt6koS_C1-10" value="0 name0 | 1 name1" style="rounded=0;whiteSpace=wrap;html=1;align=center;" vertex="1" parent="1">
          <mxGeometry x="4.5" y="3627" width="250" height="30" as="geometry" />
        </mxCell>
        <mxCell id="BSGlOFfNUsuVt6koS_C1-11" value="2 name2 | 3 name3" style="rounded=0;whiteSpace=wrap;html=1;align=center;" vertex="1" parent="1">
          <mxGeometry x="314.5" y="3627" width="240" height="30" as="geometry" />
        </mxCell>
        <mxCell id="BSGlOFfNUsuVt6koS_C1-12" value="4 name4" style="rounded=0;whiteSpace=wrap;html=1;align=center;" vertex="1" parent="1">
          <mxGeometry x="394.5" y="3727" width="190" height="30" as="geometry" />
        </mxCell>
        <mxCell id="BSGlOFfNUsuVt6koS_C1-13" value="8 name8" style="rounded=0;whiteSpace=wrap;html=1;align=center;" vertex="1" parent="1">
          <mxGeometry x="739.5" y="3647" width="205" height="30" as="geometry" />
        </mxCell>
        <mxCell id="BSGlOFfNUsuVt6koS_C1-14" style="edgeStyle=orthogonalEdgeStyle;rounded=0;orthogonalLoop=1;jettySize=auto;html=1;" edge="1" parent="1">
          <mxGeometry relative="1" as="geometry">
            <Array as="points">
              <mxPoint x="132.5" y="3607" />
            </Array>
            <mxPoint x="234.5" y="3607" as="sourcePoint" />
            <mxPoint x="132.5" y="3627" as="targetPoint" />
          </mxGeometry>
        </mxCell>
        <mxCell id="BSGlOFfNUsuVt6koS_C1-15" style="edgeStyle=orthogonalEdgeStyle;rounded=0;orthogonalLoop=1;jettySize=auto;html=1;exitX=1;exitY=0.5;exitDx=0;exitDy=0;entryX=0;entryY=0.5;entryDx=0;entryDy=0;dashed=1;" edge="1" parent="1" target="BSGlOFfNUsuVt6koS_C1-23">
          <mxGeometry relative="1" as="geometry">
            <mxPoint x="254.5" y="3642" as="sourcePoint" />
          </mxGeometry>
        </mxCell>
        <mxCell id="BSGlOFfNUsuVt6koS_C1-16" value="6 name6 | 7 name7" style="rounded=0;whiteSpace=wrap;html=1;align=center;" vertex="1" parent="1">
          <mxGeometry x="674.5" y="3727" width="210" height="30" as="geometry" />
        </mxCell>
        <mxCell id="BSGlOFfNUsuVt6koS_C1-17" value="MinHash" style="edgeStyle=orthogonalEdgeStyle;rounded=0;orthogonalLoop=1;jettySize=auto;html=1;entryX=0;entryY=0.5;entryDx=0;entryDy=0;dashed=1;exitX=1;exitY=0.5;exitDx=0;exitDy=0;" edge="1" parent="1" target="BSGlOFfNUsuVt6koS_C1-28" source="BSGlOFfNUsuVt6koS_C1-16">
          <mxGeometry relative="1" as="geometry">
            <mxPoint x="894.5" y="3742" as="sourcePoint" />
            <Array as="points">
              <mxPoint x="895" y="3742" />
              <mxPoint x="895" y="3707" />
              <mxPoint x="660" y="3707" />
              <mxPoint x="660" y="3662" />
            </Array>
          </mxGeometry>
        </mxCell>
        <mxCell id="BSGlOFfNUsuVt6koS_C1-18" style="edgeStyle=orthogonalEdgeStyle;rounded=0;orthogonalLoop=1;jettySize=auto;html=1;exitX=1;exitY=0.5;exitDx=0;exitDy=0;entryX=0;entryY=0.5;entryDx=0;entryDy=0;dashed=1;" edge="1" parent="1" target="BSGlOFfNUsuVt6koS_C1-27">
          <mxGeometry relative="1" as="geometry">
            <mxPoint x="584.5" y="3742" as="sourcePoint" />
          </mxGeometry>
        </mxCell>
        <mxCell id="BSGlOFfNUsuVt6koS_C1-19" value="idx 1" style="text;html=1;align=center;verticalAlign=middle;whiteSpace=wrap;rounded=0;fillColor=#d5e8d4;strokeColor=#82b366;" vertex="1" parent="1">
          <mxGeometry x="284.5" y="3507" width="90" height="30" as="geometry" />
        </mxCell>
        <mxCell id="BSGlOFfNUsuVt6koS_C1-20" value="idx 2" style="text;html=1;align=center;verticalAlign=middle;whiteSpace=wrap;rounded=0;fillColor=#d5e8d4;strokeColor=#82b366;" vertex="1" parent="1">
          <mxGeometry x="64.5" y="3567" width="90" height="30" as="geometry" />
        </mxCell>
        <mxCell id="BSGlOFfNUsuVt6koS_C1-21" value="idx 3" style="text;html=1;align=center;verticalAlign=middle;whiteSpace=wrap;rounded=0;fillColor=#d5e8d4;strokeColor=#82b366;" vertex="1" parent="1">
          <mxGeometry x="493.5" y="3567" width="90" height="30" as="geometry" />
        </mxCell>
        <mxCell id="BSGlOFfNUsuVt6koS_C1-22" value="leaf 1" style="text;html=1;align=center;verticalAlign=middle;whiteSpace=wrap;rounded=0;fillColor=#d5e8d4;strokeColor=#82b366;" vertex="1" parent="1">
          <mxGeometry x="-25.5" y="3627" width="90" height="30" as="geometry" />
        </mxCell>
        <mxCell id="BSGlOFfNUsuVt6koS_C1-23" value="leaf 2" style="text;html=1;align=center;verticalAlign=middle;whiteSpace=wrap;rounded=0;fillColor=#d5e8d4;strokeColor=#82b366;" vertex="1" parent="1">
          <mxGeometry x="284.5" y="3627" width="90" height="30" as="geometry" />
        </mxCell>
        <mxCell id="BSGlOFfNUsuVt6koS_C1-24" value="" style="edgeStyle=orthogonalEdgeStyle;rounded=0;orthogonalLoop=1;jettySize=auto;html=1;exitX=0.25;exitY=1;exitDx=0;exitDy=0;entryX=0.5;entryY=0;entryDx=0;entryDy=0;" edge="1" parent="1" source="BSGlOFfNUsuVt6koS_C1-8" target="BSGlOFfNUsuVt6koS_C1-12">
          <mxGeometry relative="1" as="geometry">
            <mxPoint x="627.5" y="3597" as="sourcePoint" />
            <mxPoint x="477.5" y="3703" as="targetPoint" />
            <Array as="points">
              <mxPoint x="627.5" y="3687" />
              <mxPoint x="489.5" y="3687" />
            </Array>
          </mxGeometry>
        </mxCell>
        <mxCell id="BSGlOFfNUsuVt6koS_C1-25" value="MinHash" style="edgeStyle=orthogonalEdgeStyle;rounded=0;orthogonalLoop=1;jettySize=auto;html=1;exitX=1;exitY=0.5;exitDx=0;exitDy=0;entryX=0;entryY=0.5;entryDx=0;entryDy=0;dashed=1;" edge="1" parent="1" target="BSGlOFfNUsuVt6koS_C1-26">
          <mxGeometry relative="1" as="geometry">
            <mxPoint x="553.5000000000002" y="3642" as="sourcePoint" />
            <Array as="points">
              <mxPoint x="573.5" y="3642" />
              <mxPoint x="573.5" y="3677" />
              <mxPoint x="324.5" y="3677" />
              <mxPoint x="324.5" y="3742" />
            </Array>
          </mxGeometry>
        </mxCell>
        <mxCell id="BSGlOFfNUsuVt6koS_C1-26" value="leaf 3" style="text;html=1;align=center;verticalAlign=middle;whiteSpace=wrap;rounded=0;fillColor=#d5e8d4;strokeColor=#82b366;" vertex="1" parent="1">
          <mxGeometry x="344.5" y="3727" width="90" height="30" as="geometry" />
        </mxCell>
        <mxCell id="BSGlOFfNUsuVt6koS_C1-27" value="leaf 4" style="text;html=1;align=center;verticalAlign=middle;whiteSpace=wrap;rounded=0;fillColor=#d5e8d4;strokeColor=#82b366;" vertex="1" parent="1">
          <mxGeometry x="624.5" y="3727" width="90" height="30" as="geometry" />
        </mxCell>
        <mxCell id="BSGlOFfNUsuVt6koS_C1-28" value="leaf 5" style="text;html=1;align=center;verticalAlign=middle;whiteSpace=wrap;rounded=0;fillColor=#d5e8d4;strokeColor=#82b366;" vertex="1" parent="1">
          <mxGeometry x="679.5" y="3647" width="90" height="30" as="geometry" />
        </mxCell>
        <mxCell id="BSGlOFfNUsuVt6koS_C1-29" value="Объеденяем в связный список все листовые узлы.&lt;br&gt;Чтение без сплита:&lt;br&gt;1) Читаем leaf1 -&amp;gt; leaf2 -&amp;gt; leaf3 -&amp;gt; ... leaf 5&lt;br&gt;&lt;br&gt;Произошел сплит leaf 4 на leaf 4 и leaf 4.1&lt;br&gt;Возможны 2 ситуации т.к. мы сначала создаем leaf 4.1 а затем обновляем leaf 4&lt;br&gt;1) Читаем (при старом leaf 4) leaf1 -&amp;gt; leaf2 -&amp;gt; leaf3 -&amp;gt; ... leaf 5&lt;br&gt;2) Читаем (при новом leaf 4 + 4.1) leaf1 -&amp;gt; ... -&amp;gt; leaf4 -&amp;gt; leaf 4.1 -&amp;gt; leaf 5" style="text;html=1;strokeColor=none;fillColor=none;align=left;verticalAlign=middle;whiteSpace=wrap;rounded=0;" vertex="1" parent="1">
          <mxGeometry x="49.5" y="3777" width="455" height="140" as="geometry" />
        </mxCell>
        <mxCell id="BSGlOFfNUsuVt6koS_C1-30" value="&lt;b&gt;Lookup&lt;/b&gt;&lt;br&gt;Lookup без сплита (файла который находится в leaf4):&lt;br&gt;1) Читаем idx&amp;nbsp; 1 -&amp;gt; idx 3 -&amp;gt; leaf 4 -&amp;gt; ищем файл&lt;br&gt;&lt;br&gt;Произошел сплит leaf 4 на leaf 4 и leaf 4.1&lt;br&gt;1) Читаем idx&amp;nbsp; 1 -&amp;gt; idx 3 -&amp;gt; leaf 4 -&amp;gt; ищем файл -&amp;gt; файл не найден (на самом деле он в leaf 4.1)&lt;br&gt;2) Читаем следущий блок в связном списке и проверяем 1й хэш в этом блоке&amp;nbsp;&lt;br&gt;2.1) Если Hfile &amp;lt; MinHash то файла не существует&lt;br&gt;2.2) Если Hfile &amp;gt; MinHash то повторяем поиск" style="text;html=1;strokeColor=none;fillColor=none;align=left;verticalAlign=middle;whiteSpace=wrap;rounded=0;" vertex="1" parent="1">
          <mxGeometry x="49.5" y="3947" width="575" height="160" as="geometry" />
        </mxCell>
        <mxCell id="BSGlOFfNUsuVt6koS_C1-31" value="&amp;nbsp;name0 |&amp;nbsp; name1 | ...&amp;nbsp; name 5" style="rounded=0;whiteSpace=wrap;html=1;align=right;" vertex="1" parent="1">
          <mxGeometry x="164.25" y="4320" width="250" height="30" as="geometry" />
        </mxCell>
        <mxCell id="BSGlOFfNUsuVt6koS_C1-32" value="leaf 1" style="text;html=1;align=center;verticalAlign=middle;whiteSpace=wrap;rounded=0;fillColor=#d5e8d4;strokeColor=#82b366;" vertex="1" parent="1">
          <mxGeometry x="115.25" y="4320" width="90" height="30" as="geometry" />
        </mxCell>
        <mxCell id="BSGlOFfNUsuVt6koS_C1-33" value="trash" style="edgeStyle=orthogonalEdgeStyle;rounded=0;orthogonalLoop=1;jettySize=auto;html=1;exitX=1;exitY=0.5;exitDx=0;exitDy=0;dashed=1;" edge="1" parent="1" source="BSGlOFfNUsuVt6koS_C1-34">
          <mxGeometry relative="1" as="geometry">
            <mxPoint x="395.25" y="4310" as="targetPoint" />
          </mxGeometry>
        </mxCell>
        <mxCell id="BSGlOFfNUsuVt6koS_C1-34" value="&lt;p style=&quot;margin: 10px 0px 0px ; padding: 0px ; color: rgb(23 , 43 , 77) ; font-size: 14px ; font-style: normal ; font-weight: 400 ; letter-spacing: normal ; text-indent: 0px ; text-transform: none ; word-spacing: 0px ; background-color: rgb(255 , 255 , 255)&quot;&gt;typedef struct Cursor {&lt;br&gt;&amp;nbsp; &amp;nbsp; uint64_t lba;&lt;br&gt;&amp;nbsp; &amp;nbsp; uint32_t offset;&lt;/p&gt;&lt;p style=&quot;margin: 10px 0px 0px ; padding: 0px ; color: rgb(23 , 43 , 77) ; font-size: 14px ; font-style: normal ; font-weight: 400 ; letter-spacing: normal ; text-indent: 0px ; text-transform: none ; word-spacing: 0px ; background-color: rgb(255 , 255 , 255)&quot;&gt;&lt;span&gt;&amp;nbsp; &amp;nbsp; uint32_t count;&lt;/span&gt;&lt;/p&gt;&lt;p style=&quot;margin-top: 10px ; margin-bottom: 0px ; padding: 0px ; color: rgb(23 , 43 , 77) ; font-size: 14px&quot;&gt;&lt;/p&gt;&lt;p style=&quot;margin: 10px 0px 0px ; padding: 0px ; color: rgb(23 , 43 , 77) ; font-size: 14px ; font-style: normal ; font-weight: 400 ; letter-spacing: normal ; text-indent: 0px ; text-transform: none ; word-spacing: 0px ; background-color: rgb(255 , 255 , 255)&quot;&gt;} Cursor;&lt;/p&gt;" style="text;html=1;strokeColor=none;fillColor=none;align=left;verticalAlign=middle;whiteSpace=wrap;rounded=0;" vertex="1" parent="1">
          <mxGeometry x="49.75" y="4140" width="211" height="120" as="geometry" />
        </mxCell>
        <mxCell id="BSGlOFfNUsuVt6koS_C1-35" value="&lt;span&gt;&amp;nbsp;name6 | ... |&amp;nbsp; name 10 |&amp;nbsp; name11&lt;/span&gt;" style="rounded=0;whiteSpace=wrap;html=1;align=right;" vertex="1" parent="1">
          <mxGeometry x="495.25" y="4320" width="250" height="30" as="geometry" />
        </mxCell>
        <mxCell id="BSGlOFfNUsuVt6koS_C1-36" value="leaf 1.1" style="text;html=1;align=center;verticalAlign=middle;whiteSpace=wrap;rounded=0;fillColor=#d5e8d4;strokeColor=#82b366;" vertex="1" parent="1">
          <mxGeometry x="445.25" y="4320" width="90" height="30" as="geometry" />
        </mxCell>
        <mxCell id="BSGlOFfNUsuVt6koS_C1-37" value="&lt;h1&gt;Чтение с курсором&lt;/h1&gt;&lt;p&gt;0) Заного считываем блок HTree найденый по cursor.lba&lt;/p&gt;&lt;p&gt;1) Перебираем DirRecord&#39;ы в блоке пока не достигнем нужного cursor.count&lt;/p&gt;&lt;p&gt;2) если count не достижим то сдвигаемся в начало блока и читаем (дубликаты) (тк данные внутри блока не отсортированы то при сплите возможен пропуск &quot;старых&quot; файлов)&lt;/p&gt;&lt;p&gt;3) сравниваем offset на котором остановились с cursor.offset&lt;/p&gt;&lt;p&gt;4) если offset == cursor.offset начинаем чтение&amp;nbsp;&lt;/p&gt;&lt;p&gt;5) если offset != cursor.offset то сдвигаемся в начало блока и читаем (дубликаты)&lt;/p&gt;&lt;p&gt;&lt;/p&gt;&lt;p&gt;&lt;/p&gt;" style="text;html=1;strokeColor=none;fillColor=none;spacing=5;spacingTop=-20;whiteSpace=wrap;overflow=hidden;rounded=0;" vertex="1" parent="1">
          <mxGeometry x="45.25" y="4380" width="470" height="260" as="geometry" />
        </mxCell>
      </root>
    </mxGraphModel>
  </diagram>
</mxfile>
